<?xml version="1.0" standalone="no"?>
<!DOCTYPE svg PUBLIC "-//W3C//DTD SVG 20010904//EN"
 "http://www.w3.org/TR/2001/REC-SVG-20010904/DTD/svg10.dtd">
<svg version="1.0" xmlns="http://www.w3.org/2000/svg"
 width="700.000000pt" height="700.000000pt" viewBox="0 0 700.000000 700.000000"
 preserveAspectRatio="xMidYMid meet">
<metadata>
Created by potrace 1.11, written by Peter Selinger 2001-2013
</metadata>
<g transform="translate(0.000000,700.000000) scale(0.100000,-0.100000)"
fill="#000000" stroke="none">
<path d="M5070 6900 c-111 -16 -216 -71 -279 -146 -30 -36 -206 -380 -212
-414 -2 -12 7 -84 17 -125 1 -5 10 -55 19 -110 9 -55 19 -109 21 -120 2 -11 6
-33 9 -50 3 -16 18 -104 34 -195 16 -91 32 -185 36 -210 4 -25 11 -67 17 -95
5 -27 12 -63 14 -80 18 -110 85 -479 87 -482 3 -2 27 48 202 412 40 83 110
227 155 320 45 94 106 220 135 280 29 61 86 180 127 265 90 186 100 215 103
299 9 273 -222 488 -485 451z"/>
<path d="M3991 6594 c-172 -46 -295 -220 -278 -394 5 -51 16 -115 42 -255 3
-16 10 -52 15 -80 4 -27 11 -63 14 -80 34 -185 162 -904 181 -1015 8 -50 35
-206 39 -230 9 -45 15 -83 46 -265 17 -99 32 -180 33 -180 5 -1 104 -71 122
-87 11 -9 93 -72 181 -140 89 -68 176 -134 194 -148 222 -172 394 -300 397
-297 2 2 -3 39 -12 83 -23 125 -25 137 -30 174 -3 19 -8 45 -11 58 -5 26 -34
184 -39 222 -2 14 -22 126 -45 250 -22 124 -45 252 -50 285 -5 33 -12 71 -15
85 -3 14 -12 66 -21 115 -19 113 -23 137 -35 205 -6 30 -12 69 -15 85 -3 17
-10 55 -15 85 -6 30 -12 66 -15 80 -2 14 -7 41 -10 60 -4 19 -8 44 -9 55 -2
11 -6 34 -9 50 -5 25 -75 425 -91 520 -52 309 -92 504 -110 549 -23 55 -90
131 -145 165 -94 58 -203 74 -309 45z"/>
<path d="M3791 4718 c-27 -57 -96 -200 -153 -318 -110 -226 -136 -286 -126
-295 3 -3 23 3 44 14 92 48 257 68 348 43 42 -12 58 -9 51 11 -5 11 -50 272
-61 347 -2 19 -9 55 -14 80 -11 56 -33 191 -33 208 0 6 -2 12 -3 12 -2 0 -26
-46 -53 -102z"/>
<path d="M2973 4655 c-122 -38 -215 -128 -259 -251 -16 -45 -17 -111 -18 -769
-1 -396 2 -742 7 -770 43 -247 318 -392 540 -286 71 34 110 67 156 130 49 69
63 134 65 298 l2 143 -53 51 c-145 141 -205 327 -167 516 8 40 22 89 30 110
25 62 93 155 143 196 l46 39 -1 149 c-3 187 -23 254 -103 338 -97 103 -258
147 -388 106z"/>
<path d="M2180 4479 c-98 -18 -197 -87 -253 -176 -58 -92 -58 -90 -56 -793 2
-688 3 -699 52 -799 36 -74 133 -159 202 -178 132 -37 238 -22 340 48 52 35
87 75 124 142 28 48 30 57 19 88 -8 24 -12 249 -13 750 l-2 716 -31 45 c-83
121 -236 183 -382 157z"/>
<path d="M3702 4049 c-153 -30 -290 -160 -334 -317 -53 -191 19 -388 182 -502
19 -13 37 -27 40 -30 5 -6 101 -80 285 -220 61 -46 187 -144 281 -216 l172
-133 -216 -493 -216 -493 -3 -90 c-7 -234 127 -411 356 -470 90 -23 205 -8
296 39 77 40 170 139 202 216 33 77 345 797 358 825 67 147 190 440 202 480
20 66 20 177 -1 244 -20 67 -75 165 -119 212 -18 20 -76 68 -128 106 -77 57
-234 178 -454 349 -103 80 -274 212 -296 229 -15 11 -74 57 -132 103 -198 155
-312 193 -475 161z"/>
<path d="M3569 2968 c-1 -123 -4 -143 -30 -214 -127 -338 -550 -426 -805 -167
-59 59 -62 61 -72 40 -36 -78 -161 -174 -271 -208 -158 -49 -351 -2 -474 116
-21 20 -40 35 -42 33 -8 -8 -19 -120 -19 -193 1 -85 13 -316 19 -325 1 -3 5
-32 9 -65 5 -51 17 -117 41 -240 11 -50 56 -189 84 -255 78 -188 208 -338 336
-388 23 -9 231 -12 836 -10 l807 3 -59 64 c-97 105 -149 237 -149 379 0 69 22
184 39 207 4 6 15 29 25 53 14 37 222 517 276 637 20 45 47 109 60 142 8 19 0
28 -68 79 -42 32 -79 60 -82 63 -3 3 -61 49 -130 101 -69 52 -130 99 -136 105
-6 5 -22 17 -34 25 -12 8 -53 39 -91 68 l-69 53 -1 -103z"/>
</g>
</svg>
